<svg width="32" height="32" viewBox="0 0 32 32" fill="none" xmlns="http://www.w3.org/2000/svg">
<path fill-rule="evenodd" clip-rule="evenodd" d="M21.3333 4C21.687 4 22.0261 4.14048 22.2761 4.39052C22.5262 4.64057 22.6667 4.97971 22.6667 5.33333V6.66667H25.3333C26.0406 6.66667 26.7189 6.94762 27.219 7.44772C27.719 7.94781 28 8.62609 28 9.33333V25.3333C28 26.0406 27.719 26.7189 27.219 27.219C26.7189 27.719 26.0406 28 25.3333 28H6.66667C5.95942 28 5.28115 27.719 4.78105 27.219C4.28095 26.7189 4 26.0406 4 25.3333V9.33333C4 8.62609 4.28095 7.94781 4.78105 7.44772C5.28115 6.94762 5.95942 6.66667 6.66667 6.66667H9.33333V5.33333C9.33333 4.97971 9.47381 4.64057 9.72386 4.39052C9.97391 4.14048 10.313 4 10.6667 4C11.0203 4 11.3594 4.14048 11.6095 4.39052C11.8595 4.64057 12 4.97971 12 5.33333V6.66667H20V5.33333C20 4.97971 20.1405 4.64057 20.3905 4.39052C20.6406 4.14048 20.9797 4 21.3333 4ZM10.68 21.3333H10.6667C10.3268 21.3337 9.99996 21.4638 9.75284 21.6971C9.50573 21.9304 9.35702 22.2493 9.3371 22.5885C9.31719 22.9278 9.42757 23.2618 9.64569 23.5224C9.86381 23.783 10.1732 23.9505 10.5107 23.9907L10.68 24C11.0336 24 11.3728 23.8595 11.6228 23.6095C11.8729 23.3594 12.0133 23.0203 12.0133 22.6667C12.0133 22.313 11.8729 21.9739 11.6228 21.7239C11.3728 21.4738 11.0336 21.3333 10.68 21.3333ZM16.0133 21.3333H16C15.6602 21.3337 15.3333 21.4638 15.0862 21.6971C14.8391 21.9304 14.6904 22.2493 14.6704 22.5885C14.6505 22.9278 14.7609 23.2618 14.979 23.5224C15.1971 23.783 15.5065 23.9505 15.844 23.9907L16.0133 24C16.367 24 16.7061 23.8595 16.9561 23.6095C17.2062 23.3594 17.3467 23.0203 17.3467 22.6667C17.3467 22.313 17.2062 21.9739 16.9561 21.7239C16.7061 21.4738 16.367 21.3333 16.0133 21.3333ZM21.3467 21.3333H21.3333C20.9935 21.3337 20.6666 21.4638 20.4195 21.6971C20.1724 21.9304 20.0237 22.2493 20.0038 22.5885C19.9839 22.9278 20.0942 23.2618 20.3124 23.5224C20.5305 23.783 20.8399 23.9505 21.1773 23.9907L21.3467 24C21.7003 24 22.0394 23.8595 22.2895 23.6095C22.5395 23.3594 22.68 23.0203 22.68 22.6667C22.68 22.313 22.5395 21.9739 22.2895 21.7239C22.0394 21.4738 21.7003 21.3333 21.3467 21.3333ZM10.68 16H10.6667C10.3268 16.0004 9.99996 16.1305 9.75284 16.3638C9.50573 16.5971 9.35702 16.9159 9.3371 17.2552C9.31719 17.5944 9.42757 17.9285 9.64569 18.1891C9.86381 18.4497 10.1732 18.6172 10.5107 18.6573L10.68 18.6667C11.0336 18.6667 11.3728 18.5262 11.6228 18.2761C11.8729 18.0261 12.0133 17.687 12.0133 17.3333C12.0133 16.9797 11.8729 16.6406 11.6228 16.3905C11.3728 16.1405 11.0336 16 10.68 16ZM16.0133 16H16C15.6602 16.0004 15.3333 16.1305 15.0862 16.3638C14.8391 16.5971 14.6904 16.9159 14.6704 17.2552C14.6505 17.5944 14.7609 17.9285 14.979 18.1891C15.1971 18.4497 15.5065 18.6172 15.844 18.6573L16.0133 18.6667C16.367 18.6667 16.7061 18.5262 16.9561 18.2761C17.2062 18.0261 17.3467 17.687 17.3467 17.3333C17.3467 16.9797 17.2062 16.6406 16.9561 16.3905C16.7061 16.1405 16.367 16 16.0133 16ZM21.3467 16H21.3333C20.9935 16.0004 20.6666 16.1305 20.4195 16.3638C20.1724 16.5971 20.0237 16.9159 20.0038 17.2552C19.9839 17.5944 20.0942 17.9285 20.3124 18.1891C20.5305 18.4497 20.8399 18.6172 21.1773 18.6573L21.3467 18.6667C21.7003 18.6667 22.0394 18.5262 22.2895 18.2761C22.5395 18.0261 22.68 17.687 22.68 17.3333C22.68 16.9797 22.5395 16.6406 22.2895 16.3905C22.0394 16.1405 21.7003 16 21.3467 16ZM25.3333 9.33333H6.66667V12H25.3333V9.33333Z" fill="#356D96"/>
</svg>
