<svg xmlns="http://www.w3.org/2000/svg" width="24" height="24" viewBox="0 0 24 24" fill="none">
  <g clip-path="url(#clip0_175_1371)">
    <path d="M10.32 14.16L7.74 11.58C7.52 11.36 7.24 11.25 6.9 11.25C6.56 11.25 6.28 11.36 6.06 11.58C5.84 11.8 5.73 12.08 5.73 12.42C5.73 12.76 5.84 13.04 6.06 13.26L9.47999 16.68C9.71999 16.92 10 17.04 10.32 17.04C10.64 17.04 10.92 16.92 11.16 16.68L17.94 9.9C18.16 9.68 18.27 9.4 18.27 9.06C18.27 8.72 18.16 8.44 17.94 8.22C17.72 8 17.44 7.89 17.1 7.89C16.76 7.89 16.48 8 16.26 8.22L10.32 14.16ZM12 24C10.34 24 8.78 23.6848 7.32 23.0544C5.86 22.424 4.59 21.5692 3.51 20.49C2.43 19.4108 1.5752 18.1408 0.945601 16.68C0.316001 15.2192 0.000801518 13.6592 1.51899e-06 12C-0.00079848 10.3408 0.314401 8.7808 0.945601 7.32C1.5768 5.8592 2.4316 4.5892 3.51 3.51C4.5884 2.4308 5.8584 1.576 7.32 0.9456C8.7816 0.3152 10.3416 0 12 0C13.6584 0 15.2184 0.3152 16.68 0.9456C18.1416 1.576 19.4116 2.4308 20.49 3.51C21.5684 4.5892 22.4236 5.8592 23.0556 7.32C23.6876 8.7808 24.0024 10.3408 24 12C23.9976 13.6592 23.6824 15.2192 23.0544 16.68C22.4264 18.1408 21.5716 19.4108 20.49 20.49C19.4084 21.5692 18.1384 22.4244 16.68 23.0556C15.2216 23.6868 13.6616 24.0016 12 24Z" fill="#356D96"/>
  </g>
  <defs>
    <clipPath id="clip0_175_1371">
      <rect width="24" height="24" fill="white"/>
    </clipPath>
  </defs>
</svg>