<svg xmlns="http://www.w3.org/2000/svg" width="28" height="28" viewBox="0 0 28 28" fill="none">
  <path d="M14.6104 3.20532C14.2072 3.11744 13.7914 3.11744 13.3883 3.20532C12.9692 3.2981 12.5528 3.52934 11.3482 4.23875L2.95091 9.18468L10.975 14.8543C12.3359 15.8164 12.8102 16.1318 13.2939 16.2546C13.7589 16.3728 14.2438 16.3728 14.7088 16.2546C15.1911 16.1318 15.6654 15.8164 17.0291 14.8529L25.0518 9.18468L16.6518 4.23875C15.4485 3.52934 15.0321 3.29667 14.6117 3.20532M12.9813 1.1099C13.6534 0.963366 14.3466 0.963366 15.0187 1.1099C15.78 1.27691 16.482 1.68943 17.498 2.28893L17.6327 2.36887L27.4799 8.16695C27.6374 8.25955 27.7686 8.39505 27.8601 8.55943C27.9515 8.72381 27.9998 8.91109 28 9.10189V19.1222C28 20.2841 28 21.2205 27.9407 21.977C27.8814 22.7578 27.7534 23.4429 27.4489 24.0767C26.9644 25.084 26.1913 25.903 25.2404 26.4162C24.6422 26.7388 23.9954 26.873 23.2597 26.9372C22.5428 27 21.6602 27 20.5648 27H7.43523C6.33975 27 5.45582 27 4.74033 26.9372C4.00462 26.8744 3.35784 26.7388 2.75958 26.4162C1.80817 25.9032 1.03458 25.0842 0.54976 24.0767C0.245236 23.4429 0.118576 22.7578 0.0579409 21.9784C5.622e-07 21.219 5.88021e-07 20.2841 5.88021e-07 19.1236V9.10332C-0.000193782 8.91242 0.0478021 8.72494 0.139016 8.5603C0.230229 8.39566 0.361342 8.25985 0.518769 8.16695L10.3659 2.36601C10.4117 2.33746 10.4571 2.31082 10.502 2.28608C11.518 1.68657 12.22 1.27263 12.9813 1.10705" fill="#356D96"/>
</svg>