<svg xmlns="http://www.w3.org/2000/svg" width="24" height="24" viewBox="0 0 24 24" fill="none">
  <path d="M11.3876 6.38145C10.5771 5.50016 9.47635 5.00326 8.32738 5.00002C7.17842 4.99677 6.07529 5.48743 5.26052 6.36414C4.45041 7.24589 3.99701 8.4397 4.00001 9.68311C4.00302 10.9265 4.46217 12.1178 5.27652 12.9949L11.553 19.7887C11.678 19.924 11.8475 20 12.0243 20C12.2011 20 12.3707 19.924 12.4957 19.7887L18.7401 13.0353C19.5498 12.1536 20.003 10.9601 20 9.71707C19.997 8.47401 19.5381 7.28308 18.7241 6.40599C18.3227 5.96831 17.8454 5.62063 17.3196 5.38284C16.7938 5.14505 16.2298 5.02182 15.6599 5.02022C15.09 5.01861 14.5255 5.13865 13.9985 5.37347C13.4716 5.60828 12.9926 5.95327 12.589 6.38867L11.993 7.03515L11.3876 6.38145Z" fill="white"/>
  <path d="M11.3115 5.92201C10.3997 5.00592 9.16147 4.48941 7.86898 4.48604C6.57649 4.48266 5.33555 4.9927 4.419 5.90401C3.50769 6.82056 2.99766 8.06149 3.00104 9.35398C3.00441 10.6465 3.52092 11.8847 4.437 12.7965L11.4975 19.8585C11.6381 19.9991 11.8289 20.0781 12.0278 20.0781C12.2266 20.0781 12.4174 19.9991 12.558 19.8585L19.5825 12.8385C20.4934 11.922 21.0031 10.6814 20.9997 9.38928C20.9963 8.09715 20.4801 6.85922 19.5645 5.94751C19.1129 5.49256 18.5759 5.13115 17.9845 4.88397C17.393 4.6368 16.7585 4.50871 16.1175 4.50704C15.4764 4.50536 14.8413 4.63014 14.2486 4.87423C13.6558 5.11832 13.117 5.47692 12.663 5.92951L11.9925 6.60151L11.3115 5.92201ZM18.519 11.7795L12.03 18.267L5.4975 11.736C4.86308 11.1056 4.50484 10.2491 4.50146 9.35473C4.49809 8.46035 4.84986 7.6012 5.4795 6.96601C6.11436 6.33551 6.97361 5.98291 7.86836 5.98572C8.7631 5.98853 9.62012 6.34653 10.251 6.98101L11.466 8.19601C11.5366 8.26666 11.6207 8.3225 11.7132 8.36022C11.8057 8.39794 11.9049 8.4168 12.0048 8.41568C12.1047 8.41456 12.2034 8.39349 12.295 8.35371C12.3867 8.31393 12.4695 8.25623 12.5385 8.18401L13.7235 6.99001C14.0382 6.67688 14.4116 6.42892 14.8222 6.26032C15.2329 6.09172 15.6728 6.00579 16.1167 6.00746C16.5607 6.00914 16.9999 6.09837 17.4093 6.27006C17.8187 6.44175 18.1902 6.69252 18.5025 7.00801C19.1372 7.63869 19.4954 8.49559 19.4985 9.39034C19.5016 10.2851 19.1493 11.1444 18.519 11.7795Z" fill="#9EA4A9"/>
</svg>