<svg xmlns="http://www.w3.org/2000/svg" width="24" height="24" viewBox="0 0 24 24" fill="none">
  <path d="M11.3115 5.92194C10.3997 5.00586 9.16143 4.48935 7.86894 4.48598C6.57644 4.4826 5.33551 4.99264 4.41896 5.90394C3.50765 6.8205 2.99762 8.06143 3.00099 9.35392C3.00437 10.6464 3.52088 11.8847 4.43696 12.7964L11.4975 19.8584C11.6381 19.999 11.8288 20.078 12.0277 20.078C12.2266 20.078 12.4173 19.999 12.558 19.8584L19.5825 12.8384C20.4933 11.922 21.0031 10.6813 20.9997 9.38922C20.9963 8.09709 20.4801 6.85916 19.5645 5.94744C19.1128 5.4925 18.5759 5.13109 17.9844 4.88391C17.3929 4.63674 16.7585 4.50865 16.1174 4.50698C15.4764 4.5053 14.8413 4.63008 14.2485 4.87417C13.6558 5.11826 13.117 5.47686 12.663 5.92944L11.9925 6.60144L11.3115 5.92194Z" fill="#356D96"/>
</svg>