<svg width="44" height="44" viewBox="0 0 44 44" fill="none" xmlns="http://www.w3.org/2000/svg">
<rect width="44" height="44" rx="16" fill="white"/>
<mask id="mask0_221_260" style="mask-type:alpha" maskUnits="userSpaceOnUse" x="0" y="0" width="44" height="44">
<rect width="44" height="44" rx="16" fill="#D9D9D9"/>
</mask>
<g mask="url(#mask0_221_260)">
<path d="M8.76295 24.6712C8.76295 24.6712 7.3367 22.5787 7.5267 19.7262C7.64295 17.975 8.82796 15.7687 9.97045 14.0825C11.5517 11.7475 13.908 9.86746 16.3655 8.47746C18.5767 7.22621 20.868 6.37121 22.7505 5.93871C26.7255 5.02496 30.9667 5.07871 31.2017 6.39621C31.4367 7.71371 30.6717 10.5087 31.7017 11.5562C32.2892 12.1537 33.8542 14.0887 35.0405 16.255C35.9355 17.8875 36.3817 20.1137 36.268 21.5337C36.003 24.84 35.883 25.505 35.883 25.505C35.883 25.505 11.6767 31.7137 8.7617 24.6712H8.76295Z" fill="#FE999D"/>
<path d="M38.5153 44.9425C38.0141 42.7925 37.4803 40.83 34.9203 36.8162C32.2816 32.6787 29.7928 31.8737 29.7928 31.8737C28.5103 31.2037 20.4241 27.8075 15.9091 32.3025C15.9091 32.3025 12.2053 33.6625 10.1178 36.8162C7.49155 40.785 7.02405 42.7925 6.5228 44.9425C6.02155 47.0925 5.98405 49.8712 6.24405 50.4712C6.60655 51.3087 7.3253 52.2025 8.9028 52.1462C9.2703 52.1337 9.5728 52.1162 9.8228 52.0975C9.7903 53.7212 9.95155 55.3262 10.6203 55.9725C12.1816 57.48 17.9503 60.05 25.5166 59.2962C32.4466 58.6062 34.1703 57.1462 34.8391 55.3312C34.9791 54.9525 34.8953 53.7362 34.6653 52.0475C34.9703 52.0837 35.4378 52.1237 36.1378 52.1475C37.7153 52.2037 38.4341 51.31 38.7966 50.4725C39.0565 49.8712 39.0191 47.0937 38.5178 44.9437L38.5153 44.9425Z" fill="#FE999D"/>
<path d="M34.3579 23.22C34.3166 23.22 34.2766 23.225 34.2366 23.2275C32.8829 18.3712 28.0791 14.27 22.3604 14.27C16.6416 14.27 11.8241 18.3837 10.4779 23.25C10.3691 23.2325 10.2579 23.22 10.1416 23.22C8.70289 23.22 7.27539 24.6462 7.27539 26.405C7.27539 29.67 10.6066 29.5462 10.8154 29.4725C12.5091 33.3912 17.0379 35.7987 22.3604 35.7987C27.6829 35.7987 32.1679 33.4162 33.8804 29.5325C34.0316 29.5687 36.9679 29.435 37.2241 26.405C37.3729 24.6462 35.7966 23.22 34.3579 23.22Z" fill="#FFEADC"/>
<path d="M20.2743 27.8525C20.6857 27.8525 21.0193 27.4579 21.0193 26.9712C21.0193 26.4845 20.6857 26.09 20.2743 26.09C19.8628 26.09 19.5293 26.4845 19.5293 26.9712C19.5293 27.4579 19.8628 27.8525 20.2743 27.8525Z" fill="#20120C"/>
<path d="M23.868 27.8525C24.2795 27.8525 24.613 27.4579 24.613 26.9712C24.613 26.4845 24.2795 26.09 23.868 26.09C23.4566 26.09 23.123 26.4845 23.123 26.9712C23.123 27.4579 23.4566 27.8525 23.868 27.8525Z" fill="#20120C"/>
<path d="M19.4066 24.3525C19.3016 24.3525 19.1966 24.31 19.1204 24.2275C18.9766 24.07 18.9854 23.8287 19.1404 23.6837C19.1629 23.6625 19.6979 23.1737 20.4179 23.2825C20.6291 23.315 20.7754 23.5125 20.7429 23.7237C20.7104 23.935 20.5141 24.0812 20.3016 24.0487C19.9566 23.9962 19.6691 24.25 19.6654 24.2525C19.5916 24.3187 19.4979 24.3525 19.4054 24.3525H19.4066Z" fill="#7C6D59"/>
<path d="M24.5278 24.3175C24.4403 24.3175 24.3528 24.2887 24.2815 24.2287C24.1378 24.11 23.7853 24.075 23.5803 24.09C23.369 24.1037 23.1815 23.945 23.1665 23.7312C23.1515 23.5175 23.3103 23.3325 23.5228 23.3162C23.604 23.31 24.334 23.2662 24.7753 23.63C24.9403 23.7662 24.9628 24.0112 24.8265 24.1762C24.7503 24.2687 24.639 24.3162 24.5278 24.3162V24.3175Z" fill="#7C6D59"/>
<path d="M9.01642 26.885C8.86392 26.885 8.71892 26.795 8.65767 26.645C8.57642 26.4475 8.67017 26.22 8.86767 26.1387C8.93017 26.1125 9.50017 25.8925 10.1389 26.1037C10.3427 26.1712 10.4527 26.39 10.3852 26.5937C10.3177 26.7975 10.0989 26.9075 9.89517 26.84C9.52642 26.7187 9.16642 26.855 9.16267 26.8562C9.11392 26.8762 9.06392 26.8862 9.01517 26.8862L9.01642 26.885Z" fill="#EFC3B1"/>
<path d="M35.3691 26.7512C35.2966 26.7512 35.2241 26.7312 35.1591 26.6887C34.8316 26.4762 34.4479 26.5199 34.4441 26.5212C34.2329 26.5449 34.0379 26.3974 34.0116 26.1862C33.9841 25.9749 34.1304 25.7812 34.3416 25.7524C34.4091 25.7437 35.0166 25.6724 35.5816 26.0374C35.7616 26.1537 35.8129 26.3937 35.6966 26.5737C35.6229 26.6887 35.4979 26.7512 35.3704 26.7512H35.3691Z" fill="#EFC3B1"/>
<path d="M31.0856 43.9962C31.4931 45.4075 31.8993 46.8187 32.3068 48.23C32.5043 48.915 32.7018 49.6 32.8993 50.285C33.0881 50.9412 33.2906 51.5825 33.2106 52.2737C33.1706 52.6237 33.5331 52.925 33.8506 52.925C34.2293 52.925 34.4493 52.625 34.4906 52.2737C34.5731 51.5637 34.3981 50.86 34.2043 50.1825C33.9968 49.4575 33.7868 48.7337 33.5781 48.0087C33.1593 46.5562 32.7406 45.1037 32.3218 43.65C32.0906 42.8475 30.8556 43.1887 31.0881 43.9962H31.0856Z" fill="#EB8B8B"/>
<path d="M12.3342 43.215C11.1492 45.2212 10.3642 47.4675 10.0442 49.7862C9.88167 50.9575 9.82167 52.1387 9.89417 53.3212C9.92792 53.88 9.96292 54.465 10.0892 55.01C10.2417 55.6675 10.6467 56.0812 11.1842 56.4425C11.8729 56.9062 12.5142 55.7787 11.8292 55.3175C11.6567 55.2012 11.4704 55.085 11.3842 54.8837C11.3104 54.7125 11.2892 54.51 11.2642 54.3262C11.1954 53.8075 11.1617 53.2825 11.1467 52.7587C11.1179 51.7325 11.1767 50.7 11.3417 49.6875C11.6767 47.63 12.3804 45.6587 13.4367 43.8712C13.8617 43.1512 12.7567 42.4962 12.3329 43.2137L12.3342 43.215Z" fill="#EB8B8B"/>
<path d="M31.3217 15.31C29.9079 13.565 26.7279 13.0425 23.3292 12.635C19.9304 12.2275 13.5354 16.3562 12.0629 17.7862C10.5904 19.2162 10.6492 22.5212 12.0629 22.8112C13.0117 23.0062 14.4904 21.7087 15.3617 20.8337C15.4367 20.9462 15.7342 21.515 16.1454 21.45C17.2492 21.275 20.6754 19.2637 21.4704 18.0862C21.4704 18.0862 21.5254 19.2062 22.4529 19.0312C23.2192 18.8875 23.4704 18.6637 23.5342 18.5912C23.5442 18.5875 23.5542 18.5837 23.5642 18.58C23.7304 18.7875 26.0242 21.6162 27.3217 21.4575C29.0854 21.2412 29.1392 20.2587 29.1392 20.2587C31.3067 22.9087 32.9042 21.8812 34.7592 21.6487C36.6142 21.4162 32.7367 17.055 31.3229 15.31H31.3217Z" fill="#7C6D59"/>
<path d="M10.4791 23.25C10.4791 23.25 11.1416 21.9625 11.5241 21.2375C11.9066 20.5112 13.1078 19.1262 13.9241 18.3012C14.8816 17.3337 16.3516 16.32 18.0903 15.7687C20.2728 15.0762 22.1753 15.1537 23.9503 15.4187C25.9228 15.715 28.4966 16.5825 29.3391 17.3275C30.3253 18.1975 31.9991 19.76 32.6753 20.835C33.3528 21.91 34.3566 23.22 34.3566 23.22L35.9141 20.7187C36.7953 17.4475 27.1266 8.40122 26.1578 11.6425C26.1316 11.73 17.7653 11.8575 17.7653 11.8575L11.3453 17.555L10.4766 23.25H10.4791Z" fill="#FE999D"/>
</g>
</svg>
