<svg width="36" height="36" viewBox="0 0 36 36" fill="none" xmlns="http://www.w3.org/2000/svg">
<path d="M9.6495 3.6C11.7525 3.375 14.454 3.375 17.9295 3.375H18.0705C21.546 3.375 24.2475 3.375 26.3505 3.6C28.4775 3.8295 30.162 4.305 31.506 5.379C32.886 6.483 33.531 7.9185 33.8355 9.729C34.125 11.457 34.125 13.656 34.125 16.398V16.6725C34.125 19.3455 34.125 21.195 33.825 22.5735C33.6842 23.2819 33.4065 23.956 33.0075 24.558C32.6115 25.146 32.1075 25.641 31.5075 26.121C30.162 27.1965 28.4775 27.6705 26.3505 27.8985C24.2475 28.125 21.546 28.125 18.0705 28.125H18C16.416 28.125 15.2055 28.6605 13.9395 29.484C13.4265 29.8155 12.927 30.18 12.3855 30.5775L11.9295 30.9075C11.217 31.425 10.4385 31.9725 9.5595 32.4765C9.38839 32.5746 9.19451 32.626 8.99728 32.6255C8.80005 32.625 8.60642 32.5727 8.43579 32.4738C8.26516 32.3749 8.12353 32.2328 8.0251 32.0619C7.92668 31.891 7.87491 31.6972 7.875 31.5V27.6225C6.5565 27.3375 5.4405 26.8785 4.494 26.1225C3.894 25.641 3.3885 25.1475 2.994 24.558C2.59444 23.9561 2.31624 23.282 2.175 22.5735C1.875 21.195 1.875 19.3455 1.875 16.6725V16.398C1.875 13.656 1.875 11.457 2.1645 9.7305C2.469 7.9185 3.114 6.483 4.494 5.379C5.838 4.3035 7.5225 3.828 9.6495 3.6ZM13.125 15.7515C13.125 15.4531 13.0065 15.167 12.7955 14.956C12.5845 14.745 12.2984 14.6265 12 14.6265C11.7016 14.6265 11.4155 14.745 11.2045 14.956C10.9935 15.167 10.875 15.4531 10.875 15.7515V16.5015C10.875 16.7999 10.9935 17.086 11.2045 17.297C11.4155 17.508 11.7016 17.6265 12 17.6265C12.2984 17.6265 12.5845 17.508 12.7955 17.297C13.0065 17.086 13.125 16.7999 13.125 16.5015V15.7515ZM19.125 15.7515C19.125 15.4531 19.0065 15.167 18.7955 14.956C18.5845 14.745 18.2984 14.6265 18 14.6265C17.7016 14.6265 17.4155 14.745 17.2045 14.956C16.9935 15.167 16.875 15.4531 16.875 15.7515V16.5015C16.875 16.7999 16.9935 17.086 17.2045 17.297C17.4155 17.508 17.7016 17.6265 18 17.6265C18.2984 17.6265 18.5845 17.508 18.7955 17.297C19.0065 17.086 19.125 16.7999 19.125 16.5015V15.7515ZM25.125 15.7515C25.125 15.4531 25.0065 15.167 24.7955 14.956C24.5845 14.745 24.2984 14.6265 24 14.6265C23.7016 14.6265 23.4155 14.745 23.2045 14.956C22.9935 15.167 22.875 15.4531 22.875 15.7515V16.5015C22.875 16.7999 22.9935 17.086 23.2045 17.297C23.4155 17.508 23.7016 17.6265 24 17.6265C24.2984 17.6265 24.5845 17.508 24.7955 17.297C25.0065 17.086 25.125 16.7999 25.125 16.5015V15.7515Z" fill="white"/>
</svg>
