<svg width="72" height="72" viewBox="0 0 72 72" fill="none" xmlns="http://www.w3.org/2000/svg">
<path d="M69.12 26.9544C66.78 19.752 60.7416 14.8344 53.9544 13.7736C51.06 7.14477 44.244 2.48877 36.2928 2.48877C28.3416 2.48877 22.1784 6.71277 19.0704 12.84C11.8728 13.5432 5.3376 18.588 2.88 26.1504C0.54 33.3528 2.5344 40.8792 7.404 45.7272C5.8488 52.7904 8.628 60.564 15.06 65.2392C21.1848 69.6888 28.9632 70.1184 35.076 66.9864C41.3136 70.6488 49.5648 70.4088 55.9992 65.736C62.124 61.2864 64.9368 54.0216 63.8472 47.2392C69.2568 42.4392 71.58 34.5168 69.1224 26.9544H69.12Z" fill="#FFD07A"/>
<path d="M29.4811 29.7495C29.2635 30.0318 29.093 30.4019 29.0561 30.7591C29.0379 30.9363 29.0401 31.15 29.0525 31.3285C29.0536 31.3623 29.0578 31.3938 29.0616 31.428C29.0811 31.5541 29.1203 31.6801 29.1257 31.8072L29.1254 31.2878C29.1221 31.3126 29.1218 31.335 29.1161 31.3567L29.2537 30.8559C29.2537 30.8559 29.2448 30.8799 29.2375 30.893L29.4924 30.4585L29.4819 30.4739C29.1728 30.873 29.0195 31.4279 29.0893 31.9314C29.1533 32.3948 29.4331 32.9237 29.8198 33.2003C30.2346 33.4975 30.7595 33.686 31.2773 33.5929C31.7951 33.4997 32.23 33.2719 32.5462 32.8624C32.7638 32.5801 32.9343 32.21 32.9712 31.8528C32.9894 31.6756 32.9872 31.462 32.9748 31.2834C32.9737 31.2496 32.9695 31.2182 32.9657 31.184C32.9462 31.0578 32.907 30.9318 32.9016 30.8048L32.9019 31.3242C32.9052 31.2993 32.9055 31.2769 32.9112 31.2552L32.7736 31.7561C32.7736 31.7561 32.7825 31.732 32.7898 31.7189L32.5349 32.1535L32.5454 32.138C32.8545 31.7389 33.0078 31.184 32.938 30.6805C32.874 30.2171 32.5942 29.6882 32.2075 29.4116C31.7927 29.1144 31.2678 28.9259 30.75 29.0191C30.2322 29.1122 29.7973 29.3401 29.4811 29.7495Z" fill="#444444"/>
<path d="M39.0959 31.1336C39.1045 31.2194 39.1131 31.3052 39.1082 31.3952L39.126 30.8761C39.1117 31.1795 39.0861 31.4813 39.1138 31.7861C39.1633 32.2789 39.4347 32.7829 39.8155 33.0942C40.0088 33.265 40.2297 33.377 40.4784 33.4304C40.7203 33.5291 40.975 33.5595 41.2397 33.5218C41.7358 33.4496 42.2398 33.2341 42.5478 32.8201C42.8558 32.4062 43.0254 31.9222 42.9757 31.3987C42.9671 31.3129 42.9584 31.2271 42.9634 31.1371L42.9456 31.6562C42.9599 31.3528 42.9855 31.051 42.9577 30.7462C42.9083 30.2534 42.6368 29.7494 42.2561 29.4381C42.0628 29.2673 41.8419 29.1553 41.5932 29.1019C41.3512 29.0031 41.0965 28.9728 40.8319 29.0105C40.3358 29.0826 39.8318 29.2982 39.5238 29.7121C39.2158 30.1261 39.0462 30.6101 39.0959 31.1336Z" fill="#444444"/>
<path d="M33.6517 44.2963C35.3628 44.2685 37.0739 44.2573 38.7849 44.2045C41.2778 44.1266 41.2889 40.2426 38.7849 40.3205C37.0739 40.3734 35.3628 40.3845 33.6517 40.4123C31.1561 40.454 31.1477 44.338 33.6517 44.2963Z" fill="#444444"/>
</svg>
