<svg width="72" height="72" viewBox="0 0 72 72" fill="none" xmlns="http://www.w3.org/2000/svg">
<path d="M65.9664 36C74.9232 57.4968 57.4968 74.9232 36 65.9664C14.5032 74.9232 -2.9232 57.4968 6.0336 36C-2.9232 14.5032 14.5032 -2.92321 36 6.03359C57.4968 -2.92321 74.9232 14.5032 65.9664 36Z" fill="#6CDBDC"/>
<path d="M29.2824 28.6008C29.1792 28.7808 29.0856 28.9896 29.0328 29.1888C28.9896 29.3496 28.9632 29.568 28.956 29.7312C28.956 29.7624 28.956 29.7936 28.956 29.8248C28.9704 30.096 29.0424 30.3384 29.088 30.5976L29.0232 30.1152C29.028 30.1512 29.028 30.1848 29.0232 30.2208L29.088 29.7384C29.0808 29.7816 29.0712 29.8152 29.0544 29.856C28.9776 30.0984 28.968 30.3384 29.0208 30.5808C29.0328 30.8232 29.1048 31.0488 29.2368 31.2576C29.4576 31.6344 29.8896 31.9944 30.324 32.0928C30.7896 32.1984 31.3128 32.1768 31.7256 31.9104L32.0928 31.6272C32.3184 31.3992 32.4744 31.1328 32.5608 30.8256C32.7576 30.3336 32.616 29.8536 32.5272 29.364L32.592 29.8464C32.5872 29.808 32.5872 29.7744 32.5872 29.736L32.5224 30.2184C32.5296 30.1752 32.5392 30.1368 32.5536 30.096L32.3712 30.5304C32.3832 30.4992 32.4 30.468 32.4192 30.4392C32.6544 30.0264 32.7288 29.4984 32.6016 29.0376C32.4864 28.6152 32.16 28.1592 31.7664 27.9504C31.344 27.7272 30.8328 27.6168 30.3648 27.768C29.8968 27.9192 29.5176 28.1856 29.2776 28.6032L29.2824 28.6008Z" fill="#444444"/>
<path d="M38.4456 29.7816C38.496 29.9568 38.5776 30.1392 38.6592 30.3024C38.6784 30.3432 38.7024 30.3816 38.7264 30.4176C38.7696 30.48 38.8152 30.54 38.8464 30.6096L38.664 30.1752C38.6688 30.1896 38.6736 30.204 38.676 30.2184L38.6112 29.736C38.6136 29.7504 38.616 29.7648 38.6136 29.7792L38.6784 29.2968C38.6784 29.3112 38.6736 29.3256 38.6688 29.34L38.8512 28.9056C38.844 28.9224 38.8368 28.9368 38.8272 28.9512L39.1104 28.584L39.0912 28.608C38.9136 28.7736 38.7888 28.968 38.7144 29.1936C38.6016 29.4096 38.5488 29.6448 38.5584 29.8944C38.5488 30.144 38.6016 30.3792 38.7144 30.5952C38.7888 30.8208 38.9136 31.0152 39.0912 31.1808C39.4368 31.5 39.8928 31.7352 40.3776 31.7136L40.86 31.6488C41.1672 31.5624 41.436 31.4064 41.6616 31.1808C41.9208 30.8544 42.0744 30.6792 42.1824 30.2664C42.2808 29.8896 42.2544 29.8176 42.2112 29.4984C42.1656 29.1528 42.1704 29.1672 41.9832 28.7784C41.9256 28.6608 41.8344 28.5624 41.7816 28.4424L41.964 28.8768C41.9568 28.8576 41.9496 28.8384 41.9448 28.8192C41.82 28.3776 41.5056 27.9648 41.1096 27.732C40.9008 27.6 40.6752 27.528 40.4328 27.516C40.1904 27.4608 39.9504 27.4728 39.708 27.5496C39.2688 27.6912 38.844 27.9648 38.6208 28.3848C38.3976 28.8048 38.3016 29.3064 38.4384 29.7864L38.4456 29.7816Z" fill="#444444"/>
<path d="M25.8288 40.4136C26.9736 42.1584 28.1448 43.3344 30.1704 43.9608C32.4528 44.6664 34.5888 44.3568 36.9144 44.508C38.9952 44.6424 40.4664 44.5824 42.408 43.68C44.3784 42.7632 45.0168 41.4216 46.1904 39.7032C47.5152 37.7664 44.364 35.9448 43.0512 37.8672C42.312 38.9472 42.0336 39.8472 40.7808 40.4304C39.4008 41.0736 38.3832 40.968 36.9168 40.8696C33.9168 40.668 30.8856 41.4912 28.9704 38.5776C27.6912 36.6288 24.54 38.4504 25.8312 40.4136H25.8288Z" fill="#444444"/>
</svg>
