<svg width="72" height="72" viewBox="0 0 72 72" fill="none" xmlns="http://www.w3.org/2000/svg">
<path d="M58.6848 11.076C65.4792 17.2608 68.412 25.9488 68.8128 34.4568C69.2136 42.9624 67.1088 51.888 60.924 58.6848C54.7392 65.4792 46.0512 68.412 37.5432 68.8128C29.0376 69.2136 20.112 67.1088 13.3152 60.924C6.5208 54.7392 3.588 46.0512 3.1872 37.5432C2.7864 29.0352 4.8912 20.112 11.076 13.3152C17.2608 6.5208 25.9488 3.588 34.4568 3.1872C42.9624 2.7864 51.888 4.8912 58.6848 11.076Z" fill="#8CDF9B"/>
<path d="M29.5512 37.3152C33.8064 37.5336 38.0616 37.7664 42.3168 37.9968C41.7696 37.5792 41.2224 37.164 40.6728 36.7464C41.1936 38.0832 39.8712 41.1576 39.3672 42.4776C38.7504 44.1 37.4568 48.0312 35.1408 46.9416C31.0488 45.0168 31.488 39.3024 31.2528 35.6112C31.1136 33.4344 27.7056 33.4176 27.8448 35.6112C28.0464 38.7768 27.8496 42.0672 29.2032 45.0192C30.3984 47.6304 32.7792 50.496 35.8824 50.6256C39.144 50.76 40.7472 47.7552 41.916 45.1632C42.6384 43.5624 43.224 41.904 43.6128 40.188C43.9008 38.9112 44.4528 37.116 43.956 35.8392C43.6656 35.0952 43.1256 34.632 42.312 34.5888C38.0568 34.3584 33.8016 34.128 29.5464 33.9072C27.3552 33.7944 27.36 37.2024 29.5464 37.3152H29.5512Z" fill="#444444"/>
<path d="M30.6384 28.24C32.832 28.24 32.8344 24.832 30.6384 24.832C28.4424 24.832 28.4424 28.24 30.6384 28.24Z" fill="#444444"/>
<path d="M38.3328 27.4361L38.3376 27.4457L38.1648 27.0377C38.1648 27.0377 38.1696 27.0497 38.1696 27.0569L38.1096 26.6033C38.1096 26.6153 38.1096 26.6273 38.1096 26.6393L38.1696 26.1857C38.16 26.2457 38.136 26.3009 38.1216 26.3609C38.1192 26.3753 38.1168 26.3873 38.1144 26.4017L38.0544 26.8553C38.0544 26.8553 38.0544 26.8721 38.0544 26.8793C38.0448 27.1865 38.148 27.5129 38.2992 27.7793C38.4072 27.9785 38.5536 28.1369 38.7384 28.2569C38.904 28.4081 39.096 28.5089 39.3168 28.5617C39.5424 28.6337 39.7704 28.6433 39.996 28.5929C40.2216 28.5833 40.4328 28.5161 40.6296 28.3913L40.9752 28.1249C41.1864 27.9113 41.3328 27.6617 41.4144 27.3737L41.4744 26.9201C41.4744 26.6129 41.3952 26.3249 41.2416 26.0609L41.2368 26.0513L41.4096 26.4593C41.4096 26.4593 41.4048 26.4473 41.4048 26.4401L41.4648 26.8937C41.4648 26.8817 41.4648 26.8697 41.4648 26.8577L41.4048 27.3113C41.4144 27.2513 41.4384 27.1961 41.4528 27.1361C41.4552 27.1217 41.4576 27.1097 41.46 27.0953L41.52 26.6417C41.52 26.6417 41.52 26.6249 41.52 26.6177C41.5296 26.3105 41.4264 25.9841 41.2752 25.7177C41.1672 25.5185 41.0208 25.3601 40.836 25.2401C40.6704 25.0889 40.4784 24.9881 40.2576 24.9353C40.032 24.8633 39.804 24.8537 39.5784 24.9041C39.3528 24.9137 39.1416 24.9809 38.9448 25.1057L38.5992 25.3721C38.388 25.5857 38.2416 25.8353 38.16 26.1233L38.1 26.5769C38.1 26.8841 38.1792 27.1721 38.3328 27.4361Z" fill="#444444"/>
</svg>
