<svg width="72" height="72" viewBox="0 0 72 72" fill="none" xmlns="http://www.w3.org/2000/svg">
<path d="M66.168 19.308C64.0488 15.636 60.5376 13.2192 56.5392 12.2568C53.3064 11.4792 50.4696 9.62398 48.3312 7.07758C42.5688 0.211183 31.7736 -0.180017 25.6128 6.29758C23.3328 8.69518 20.3712 10.2816 17.1144 10.8552C8.2896 12.4128 2.556 21.5592 5.076 30.1272C6.0072 33.2976 5.9208 36.6552 4.7856 39.7584C1.704 48.1872 6.7656 57.7464 15.4608 59.844C18.6768 60.6192 21.5304 62.3904 23.6568 64.9248C29.4192 71.7912 40.2168 72.1824 46.3752 65.7048C48.6552 63.3072 51.6168 61.7208 54.8736 61.1472C63.8064 59.5704 69.5736 50.2152 66.816 41.5584C65.8416 38.496 66.0144 35.2152 67.1208 32.1984C68.6688 27.9768 68.472 23.3016 66.168 19.3104V19.308Z" fill="#FFB1B1"/>
<path d="M29.5896 29.4216C29.5896 29.568 29.5632 29.712 29.5608 29.8584C29.5512 30.0936 29.6016 30.3144 29.7096 30.5184C29.7792 30.732 29.8968 30.9144 30.0648 31.0704C30.2208 31.2384 30.4032 31.356 30.6168 31.4256C30.8208 31.5336 31.0416 31.5816 31.2768 31.5744L31.7328 31.512C32.0232 31.4304 32.2752 31.284 32.4888 31.0704L32.7576 30.7224C32.9136 30.456 32.9904 30.1656 32.9928 29.856C32.9928 29.7096 33.0192 29.5656 33.0216 29.4192C33.0312 29.184 32.9808 28.9632 32.8728 28.7592C32.8032 28.5456 32.6856 28.3632 32.5176 28.2072C32.3616 28.0392 32.1792 27.9216 31.9656 27.852C31.7616 27.744 31.5408 27.696 31.3056 27.7032L30.8496 27.7656C30.5592 27.8472 30.3072 27.9936 30.0936 28.2072L29.8248 28.5552C29.6688 28.8216 29.592 29.112 29.5896 29.4216Z" fill="#444444"/>
<path d="M38.5704 29.7816C38.6184 29.976 38.6472 30.1752 38.6928 30.3696C38.7936 30.78 39.12 31.1832 39.48 31.3944C39.6768 31.5192 39.8904 31.5888 40.1184 31.5984C40.3464 31.6488 40.5744 31.6392 40.8024 31.5672C41.2176 31.4328 41.6184 31.176 41.8272 30.78C42.036 30.384 42.1128 29.9208 42 29.4576C41.952 29.2632 41.9232 29.064 41.8776 28.8696C41.7768 28.4592 41.4504 28.056 41.0904 27.8448C40.8936 27.72 40.68 27.6504 40.452 27.6408C40.224 27.5904 39.996 27.6 39.768 27.672C39.3528 27.8064 38.952 28.0632 38.7432 28.4592C38.5248 28.8744 38.4576 29.3184 38.5704 29.7816Z" fill="#444444"/>
<path d="M29.2872 43.7952C31.0128 41.8488 33.3552 41.1072 35.8392 40.6152C37.128 40.3584 38.9112 40.7544 39.9264 41.5848C40.3392 41.9232 40.6224 42.348 41.0712 42.6576C41.5632 42.9936 42.1704 43.1448 42.6312 43.5312C44.3136 44.9376 46.7544 42.5232 45.0576 41.1048C44.4888 40.6296 43.884 40.38 43.284 39.9792C42.5736 39.5064 42.1032 38.796 41.376 38.34C39.8664 37.3944 37.6824 37.0464 35.9232 37.164C34.5792 37.2552 33.0144 37.764 31.704 38.1072C29.7888 38.6064 28.1448 39.9216 26.8608 41.3712C25.4016 43.0176 27.8184 45.4536 29.2872 43.7976V43.7952Z" fill="#444444"/>
</svg>
