<svg width="72" height="72" viewBox="0 0 72 72" fill="none" xmlns="http://www.w3.org/2000/svg">
<path d="M71.0664 36C71.0664 39.504 65.4432 42.0744 64.4184 45.2352C63.3552 48.5112 66.3552 53.8896 64.3704 56.616C62.3664 59.3688 56.3112 58.1688 53.556 60.1728C50.8296 62.1576 50.112 68.2992 46.836 69.3624C43.6752 70.3896 39.4992 65.8752 35.9976 65.8752C32.496 65.8752 28.32 70.3896 25.1592 69.3624C21.8832 68.2992 21.168 62.1576 18.4392 60.1728C15.7104 58.188 9.6288 59.3712 7.6248 56.616C5.64 53.8896 8.6424 48.5112 7.5768 45.2352C6.5496 42.0744 0.928802 39.504 0.928802 36C0.928802 32.496 6.552 29.9256 7.5768 26.7648C8.64 23.4888 5.64 18.1104 7.6248 15.384C9.6288 12.6312 15.684 13.8312 18.4392 11.8272C21.1656 9.84243 21.8832 3.70083 25.1592 2.63763C28.32 1.61043 32.496 6.12483 35.9976 6.12483C39.4992 6.12483 43.6752 1.61043 46.836 2.63763C50.112 3.70083 50.8272 9.84243 53.556 11.8272C56.3088 13.8312 62.3664 12.6288 64.3704 15.384C66.3552 18.1104 63.3528 23.4888 64.4184 26.7648C65.4456 29.9256 71.0664 32.496 71.0664 36Z" fill="#FD929C"/>
<path d="M32.6136 25.8576C31.3992 25.752 30.2568 26.1456 29.1792 26.676C28.212 27.1512 27.4944 27.8856 26.604 28.4616C24.7656 29.6496 26.4744 32.6064 28.3272 31.4088C29.6856 30.5328 30.8352 29.1168 32.6136 29.2704C34.8024 29.46 34.788 26.0472 32.6136 25.8576Z" fill="#444444"/>
<path d="M42.0024 30.3888C41.652 30.2616 41.604 30.2664 41.8608 30.408C41.9736 30.4896 42.0888 30.5664 42.204 30.6456C42.4872 30.8256 42.7872 30.9696 43.092 31.1064C43.7088 31.3848 44.3328 31.608 44.9136 31.9608C46.7952 33.1032 48.5136 30.1536 46.6368 29.0136C45.9144 28.5744 45.108 28.332 44.3592 27.9456C43.5288 27.516 42.984 27.0552 42 26.976C41.0808 26.9016 40.2936 27.8136 40.2936 28.6824C40.2936 29.6688 41.0784 30.3144 42 30.3888H42.0024Z" fill="#444444"/>
<path d="M29.6232 44.7504C30.516 42.6792 33.6552 40.3848 35.8512 41.472C36.876 41.9784 38.2128 42.4152 39.1704 43.0128C40.128 43.6104 40.6248 44.9184 41.4432 45.7296C43.0056 47.2776 45.42 44.8656 43.8576 43.3152C42.5544 42.024 42.0624 40.6008 40.2936 39.7896C38.6496 39.036 36.7272 37.6296 34.884 37.5528C33.3192 37.488 31.6464 38.4888 30.2808 39.1824C28.6584 40.008 27.3936 41.352 26.6712 43.0224C25.8096 45.0192 28.7496 46.7592 29.6184 44.7456L29.6232 44.7504Z" fill="#444444"/>
</svg>
