<svg xmlns="http://www.w3.org/2000/svg" width="24" height="24" viewBox="0 0 24 24" fill="none">
  <path fill-rule="evenodd" clip-rule="evenodd" d="M3.25 22C3.25 21.8011 3.32902 21.6103 3.46967 21.4697C3.61032 21.329 3.80109 21.25 4 21.25H20C20.1989 21.25 20.3897 21.329 20.5303 21.4697C20.671 21.6103 20.75 21.8011 20.75 22C20.75 22.1989 20.671 22.3897 20.5303 22.5303C20.3897 22.671 20.1989 22.75 20 22.75H4C3.80109 22.75 3.61032 22.671 3.46967 22.5303C3.32902 22.3897 3.25 22.1989 3.25 22Z" fill="#356D96"/>
  <path d="M11.52 14.929L17.437 9.01199C16.4411 8.59718 15.5368 7.98991 14.776 7.22499C14.0106 6.46398 13.403 5.55935 12.988 4.56299L7.07 10.48C6.608 10.942 6.377 11.172 6.179 11.427C5.94445 11.7271 5.74358 12.052 5.58 12.396C5.441 12.687 5.338 12.997 5.131 13.616L4.043 16.883C3.99307 17.0325 3.98577 17.1929 4.02193 17.3462C4.05808 17.4996 4.13625 17.6399 4.24768 17.7513C4.3591 17.8627 4.49937 17.9409 4.65275 17.9771C4.80612 18.0132 4.96654 18.0059 5.116 17.956L8.382 16.868C9.002 16.661 9.312 16.558 9.603 16.418C9.94833 16.254 10.2713 16.0547 10.572 15.82C10.827 15.621 11.057 15.39 11.519 14.929M19.079 7.36999C19.3711 7.0778 19.6028 6.73093 19.7609 6.34919C19.919 5.96745 20.0003 5.55831 20.0003 5.14514C20.0002 4.73197 19.9188 4.32285 19.7606 3.94114C19.6025 3.55944 19.3707 3.21262 19.0785 2.92049C18.7863 2.62837 18.4394 2.39665 18.0577 2.23858C17.676 2.08051 17.2668 1.99918 16.8536 1.99922C16.4405 1.99927 16.0314 2.0807 15.6496 2.23885C15.2679 2.39701 14.9211 2.6288 14.629 2.92099L13.919 3.63099L13.95 3.72099C14.21 4.46999 14.701 5.45299 15.624 6.37599C16.3939 7.1504 17.3343 7.73395 18.37 8.07999L19.079 7.36999Z" fill="#356D96"/>
</svg>