<svg width="40" height="40" viewBox="0 0 40 40" fill="none" xmlns="http://www.w3.org/2000/svg">
<rect x="0.5" y="0.5" width="39" height="39" rx="19.5" fill="#F4FAFF" stroke="#356D96"/>
<mask id="mask0_221_336" style="mask-type:alpha" maskUnits="userSpaceOnUse" x="0" y="0" width="40" height="40">
<rect width="40" height="40" rx="20" fill="#D9D9D9"/>
</mask>
<g mask="url(#mask0_221_336)">
<path d="M7.96637 22.4285C7.96637 22.4285 6.66978 20.5262 6.8425 17.933C6.94819 16.341 8.02546 14.3353 9.06409 12.8023C10.5016 10.6796 12.6436 8.97051 14.8777 7.70687C16.888 6.56937 18.9709 5.7921 20.6823 5.39892C24.2959 4.56823 28.1516 4.6171 28.3652 5.81482C28.5789 7.01255 27.8834 9.55346 28.8198 10.5057C29.3539 11.0489 30.7766 12.808 31.855 14.7773C32.6686 16.2614 33.0743 18.2853 32.9709 19.5762C32.73 22.5819 32.6209 23.1864 32.6209 23.1864C32.6209 23.1864 10.6152 28.8307 7.96523 22.4285H7.96637Z" fill="#FE999D"/>
<path d="M35.0139 40.8569C34.5582 38.9023 34.073 37.1182 31.7457 33.4694C29.3469 29.708 27.0844 28.9762 27.0844 28.9762C25.9185 28.3671 18.5673 25.2796 14.4628 29.3659C14.4628 29.3659 11.0957 30.6023 9.198 33.4694C6.8105 37.0773 6.3855 38.9023 5.92982 40.8569C5.47414 42.8114 5.44005 45.3375 5.67641 45.883C6.00596 46.6444 6.65937 47.4569 8.09346 47.4057C8.42755 47.3944 8.70255 47.3784 8.92982 47.3614C8.90028 48.8375 9.04687 50.2966 9.65482 50.8841C11.0741 52.2546 16.3185 54.5909 23.1969 53.9057C29.4969 53.2784 31.0639 51.9512 31.6719 50.3012C31.7991 49.9569 31.723 48.8512 31.5139 47.3159C31.7912 47.3489 32.2162 47.3853 32.8525 47.4069C34.2866 47.458 34.94 46.6455 35.2696 45.8841C35.506 45.3375 35.4719 42.8125 35.0162 40.858L35.0139 40.8569Z" fill="#FE999D"/>
<path d="M31.2345 21.109C31.197 21.109 31.1606 21.1136 31.1242 21.1158C29.8936 16.7011 25.5265 12.9727 20.3277 12.9727C15.1288 12.9727 10.7492 16.7124 9.52538 21.1363C9.42651 21.1204 9.32538 21.109 9.2197 21.109C7.91174 21.109 6.61401 22.4056 6.61401 24.0045C6.61401 26.9727 9.64242 26.8602 9.8322 26.7931C11.372 30.3556 15.489 32.5442 20.3277 32.5442C25.1663 32.5442 29.2436 30.3783 30.8004 26.8477C30.9379 26.8806 33.6072 26.759 33.8402 24.0045C33.9754 22.4056 32.5424 21.109 31.2345 21.109Z" fill="#FFEADC"/>
<path d="M18.4312 25.3203C18.8052 25.3203 19.1085 24.9616 19.1085 24.5192C19.1085 24.0767 18.8052 23.718 18.4312 23.718C18.0571 23.718 17.7539 24.0767 17.7539 24.5192C17.7539 24.9616 18.0571 25.3203 18.4312 25.3203Z" fill="#20120C"/>
<path d="M21.6983 25.3203C22.0723 25.3203 22.3755 24.9616 22.3755 24.5192C22.3755 24.0767 22.0723 23.718 21.6983 23.718C21.3242 23.718 21.021 24.0767 21.021 24.5192C21.021 24.9616 21.3242 25.3203 21.6983 25.3203Z" fill="#20120C"/>
<path d="M17.6425 22.1387C17.5471 22.1387 17.4516 22.1 17.3823 22.025C17.2516 21.8819 17.2596 21.6625 17.4005 21.5307C17.4209 21.5114 17.9073 21.0671 18.5618 21.1659C18.7539 21.1955 18.8868 21.375 18.8573 21.5671C18.8278 21.7591 18.6493 21.8921 18.4562 21.8625C18.1425 21.8148 17.8812 22.0455 17.8778 22.0478C17.8107 22.108 17.7255 22.1387 17.6414 22.1387H17.6425Z" fill="#7C6D59"/>
<path d="M22.298 22.1068C22.2184 22.1068 22.1389 22.0806 22.0741 22.0261C21.9434 21.9181 21.623 21.8863 21.4366 21.9C21.2446 21.9125 21.0741 21.7681 21.0605 21.5738C21.0468 21.3795 21.1911 21.2113 21.3843 21.1965C21.4582 21.1909 22.1218 21.1511 22.523 21.4818C22.673 21.6056 22.6934 21.8284 22.5696 21.9784C22.5002 22.0625 22.3991 22.1056 22.298 22.1056V22.1068Z" fill="#7C6D59"/>
<path d="M8.19697 24.441C8.05833 24.441 7.92651 24.3591 7.87083 24.2228C7.79697 24.0432 7.8822 23.8364 8.06174 23.7626C8.11856 23.7387 8.63674 23.5387 9.21742 23.7307C9.40265 23.7921 9.50265 23.991 9.44129 24.1762C9.37992 24.3614 9.18106 24.4614 8.99583 24.4001C8.66061 24.2898 8.33333 24.4137 8.32992 24.4148C8.28561 24.433 8.24015 24.4421 8.19583 24.4421L8.19697 24.441Z" fill="#EFC3B1"/>
<path d="M32.1539 24.3193C32.088 24.3193 32.022 24.3012 31.9629 24.2625C31.6652 24.0693 31.3164 24.1091 31.3129 24.1103C31.1209 24.1318 30.9436 23.9978 30.9198 23.8057C30.8948 23.6137 31.0277 23.4375 31.2198 23.4114C31.2811 23.4034 31.8334 23.3387 32.347 23.6705C32.5107 23.7762 32.5573 23.9943 32.4516 24.158C32.3845 24.2625 32.2709 24.3193 32.155 24.3193H32.1539Z" fill="#EFC3B1"/>
<path d="M28.2599 39.9964C28.6304 41.2794 28.9997 42.5623 29.3702 43.8453C29.5497 44.468 29.7292 45.0908 29.9088 45.7135C30.0804 46.3101 30.2645 46.893 30.1917 47.5214C30.1554 47.8396 30.4849 48.1135 30.7736 48.1135C31.1179 48.1135 31.3179 47.8408 31.3554 47.5214C31.4304 46.876 31.2713 46.2362 31.0952 45.6203C30.9065 44.9612 30.7156 44.3033 30.5258 43.6442C30.1452 42.3237 29.7645 41.0033 29.3838 39.6817C29.1736 38.9521 28.0508 39.2623 28.2622 39.9964H28.2599Z" fill="#EB8B8B"/>
<path d="M11.2131 39.2862C10.1358 41.11 9.42219 43.1521 9.13128 45.26C8.98356 46.3248 8.92901 47.3987 8.99492 48.4737C9.0256 48.9816 9.05742 49.5134 9.17219 50.0089C9.31083 50.6066 9.67901 50.9828 10.1676 51.3112C10.7938 51.7328 11.3767 50.7078 10.754 50.2884C10.5972 50.1828 10.4279 50.0771 10.3495 49.8941C10.2824 49.7384 10.2631 49.5544 10.2404 49.3873C10.1779 48.9157 10.1472 48.4384 10.1336 47.9623C10.1074 47.0294 10.1608 46.0907 10.3108 45.1703C10.6154 43.2998 11.2551 41.5078 12.2154 39.8828C12.6017 39.2282 11.5972 38.6328 11.212 39.285L11.2131 39.2862Z" fill="#EB8B8B"/>
<path d="M28.4742 13.9181C27.189 12.3317 24.298 11.8567 21.2083 11.4863C18.1185 11.1158 12.3049 14.8692 10.9662 16.1692C9.62759 17.4692 9.681 20.4738 10.9662 20.7374C11.8287 20.9147 13.173 19.7351 13.9651 18.9397C14.0333 19.042 14.3037 19.559 14.6776 19.4999C15.681 19.3408 18.7958 17.5124 19.5185 16.442C19.5185 16.442 19.5685 17.4601 20.4117 17.3011C21.1083 17.1704 21.3367 16.967 21.3946 16.9011C21.4037 16.8976 21.4128 16.8942 21.4219 16.8908C21.573 17.0795 23.6583 19.6511 24.8378 19.5067C26.4412 19.3101 26.4901 18.417 26.4901 18.417C28.4605 20.8261 29.9128 19.892 31.5992 19.6806C33.2855 19.4692 29.7605 15.5045 28.4753 13.9181H28.4742Z" fill="#7C6D59"/>
<path d="M9.52644 21.1363C9.52644 21.1363 10.1287 19.9658 10.4764 19.3068C10.8242 18.6465 11.9162 17.3874 12.6583 16.6374C13.5287 15.7579 14.8651 14.8363 16.4458 14.3352C18.4299 13.7056 20.1594 13.7761 21.773 14.017C23.5662 14.2863 25.906 15.0749 26.6719 15.7522C27.5685 16.5431 29.0901 17.9636 29.7049 18.9408C30.3208 19.9181 31.2333 21.109 31.2333 21.109L32.6492 18.8352C33.4503 15.8613 24.6605 7.63744 23.7799 10.584C23.756 10.6636 16.1503 10.7795 16.1503 10.7795L10.3139 15.959L9.52417 21.1363H9.52644Z" fill="#FE999D"/>
</g>
<rect x="0.5" y="0.5" width="39" height="39" rx="19.5" stroke="#356D96"/>
</svg>
