<svg width="10" height="10" viewBox="0 0 10 10" fill="none" xmlns="http://www.w3.org/2000/svg">
<path d="M3.78182 1.16039L6.78461 4.46329C6.85416 4.53979 6.90762 4.62205 6.94501 4.71006C6.9824 4.79807 7.00073 4.89472 6.99998 5C6.99923 5.10529 6.98054 5.20193 6.94389 5.28994C6.90725 5.37796 6.85378 5.46021 6.78349 5.53671L3.7807 8.83961C3.73883 8.88485 3.69059 8.92309 3.636 8.95435C3.58141 8.98478 3.52271 9 3.4599 9C3.33427 9 3.22621 8.95476 3.13573 8.86428C3.04524 8.77216 3 8.65166 3 8.50278L3 1.49846C3 1.34876 3.04636 1.22826 3.13909 1.13695C3.23182 1.04565 3.3395 1 3.46214 1C3.49355 1 3.59974 1.05346 3.7807 1.16039" fill="#74777D"/>
</svg>
