<svg xmlns="http://www.w3.org/2000/svg" width="24" height="24" viewBox="0 0 24 24" fill="none">
  <path d="M14.82 1H9.18L8.533 4.237C7.9973 4.47706 7.48792 4.77197 7.013 5.117L3.883 4.058L1.064 8.942L3.545 11.122C3.48508 11.7058 3.48508 12.2942 3.545 12.878L1.064 15.058L3.884 19.942L7.013 18.884C7.485 19.226 7.993 19.522 8.533 19.763L9.18 23H14.82L15.467 19.763C16.0027 19.5229 16.5121 19.228 16.987 18.883L20.117 19.942L22.937 15.058L20.455 12.878C20.5149 12.2942 20.5149 11.7058 20.455 11.122L22.936 8.942L20.116 4.058L16.988 5.116C16.513 4.77131 16.0037 4.47674 15.468 4.237L14.82 1ZM12 16C10.9391 16 9.92172 15.5786 9.17157 14.8284C8.42143 14.0783 8 13.0609 8 12C8 10.9391 8.42143 9.92172 9.17157 9.17157C9.92172 8.42143 10.9391 8 12 8C13.0609 8 14.0783 8.42143 14.8284 9.17157C15.5786 9.92172 16 10.9391 16 12C16 13.0609 15.5786 14.0783 14.8284 14.8284C14.0783 15.5786 13.0609 16 12 16Z" fill="#356D96"/>
</svg>