<svg xmlns="http://www.w3.org/2000/svg" width="24" height="24" viewBox="0 0 24 24" fill="none">
  <path d="M6.375 22C5.75625 22 5.22675 21.7826 4.7865 21.3478C4.34625 20.913 4.12575 20.3896 4.125 19.7778V5.89583C4.125 5.58517 3.87316 5.33333 3.5625 5.33333C3.25184 5.33333 3 5.08149 3 4.77083V4.11111C3 3.55883 3.44772 3.11111 4 3.11111H8.06944C8.37627 3.11111 8.625 2.86238 8.625 2.55556C8.625 2.24873 8.87373 2 9.18056 2H14.8194C15.1263 2 15.375 2.24873 15.375 2.55556C15.375 2.86238 15.6237 3.11111 15.9306 3.11111H20C20.5523 3.11111 21 3.55883 21 4.11111V4.77083C21 5.08149 20.7482 5.33333 20.4375 5.33333C20.1268 5.33333 19.875 5.58517 19.875 5.89583V19.7778C19.875 20.3889 19.6549 20.9122 19.2146 21.3478C18.7744 21.7833 18.2445 22.0007 17.625 22H6.375ZM17.625 6.33333C17.625 5.78105 17.1773 5.33333 16.625 5.33333H7.375C6.82272 5.33333 6.375 5.78105 6.375 6.33333V18.7778C6.375 19.3301 6.82272 19.7778 7.375 19.7778H16.625C17.1773 19.7778 17.625 19.3301 17.625 18.7778V6.33333ZM8.625 16.5556C8.625 17.1078 9.07272 17.5556 9.625 17.5556H9.875C10.4273 17.5556 10.875 17.1078 10.875 16.5556V8.55556C10.875 8.00327 10.4273 7.55556 9.875 7.55556H9.625C9.07272 7.55556 8.625 8.00327 8.625 8.55556V16.5556ZM13.125 16.5556C13.125 17.1078 13.5727 17.5556 14.125 17.5556H14.375C14.9273 17.5556 15.375 17.1078 15.375 16.5556V8.55556C15.375 8.00327 14.9273 7.55556 14.375 7.55556H14.125C13.5727 7.55556 13.125 8.00327 13.125 8.55556V16.5556Z" fill="#356D96"/>
</svg>